<svg width="17" height="16" viewBox="0 0 17 16" fill="none" xmlns="http://www.w3.org/2000/svg">
<path fill-rule="evenodd" clip-rule="evenodd" d="M15.2861 7.79872C15.3495 11.4322 12.3416 14.4293 8.7081 14.4927C5.07521 14.5555 2.19294 11.6613 2.13013 8.02779C2.06674 4.3955 5.07521 1.3972 8.7081 1.3344C12.341 1.271 15.2233 4.16642 15.2861 7.79872Z" fill="#F1515F"/>
<path fill-rule="evenodd" clip-rule="evenodd" d="M8.22188 8.94743L8.02118 4.84216H9.42609L9.24363 8.94743H8.22188ZM8.00293 10.2885C8.00293 9.88707 8.33135 9.54953 8.73275 9.54953C9.13416 9.54953 9.46258 9.88707 9.46258 10.2885C9.46258 10.6808 9.13416 11.0183 8.73275 11.0183C8.33135 11.0183 8.00293 10.6808 8.00293 10.2885Z" fill="white"/>
</svg>
